<svg width="52" height="54" viewBox="0 0 52 54" fill="none" xmlns="http://www.w3.org/2000/svg">
<path id="Vector" d="M51.8664 12.4132C51.8931 12.4665 51.8931 12.5465 51.8931 12.6265V24.0665C51.8931 24.3332 51.7331 24.6532 51.4931 24.7865L41.8664 30.3332V41.2932C41.8664 41.5865 41.7331 41.8532 41.4664 42.0132L21.4131 53.5599C21.3598 53.5865 21.3064 53.6665 21.2531 53.6665H21.1998C21.0664 53.6665 20.9064 53.6665 20.7731 53.6665C20.7464 53.6665 20.6664 53.6665 20.6664 53.6665C20.6664 53.6665 20.6664 53.5865 20.5598 53.5599L0.506446 42.0132C0.266446 41.8799 0.106445 41.5865 0.106445 41.2932V6.99986C0.106445 6.86653 0.106445 6.78653 0.133112 6.7332C0.133112 6.70653 0.159779 6.67986 0.159779 6.6532C0.159779 6.59986 0.186445 6.5732 0.213112 6.51986C0.213112 6.4932 0.239779 6.46653 0.266445 6.43986C0.293112 6.4132 0.319779 6.38653 0.346446 6.35986C0.373112 6.3332 0.399779 6.30653 0.426446 6.27986C0.453112 6.2532 0.479779 6.22653 0.506446 6.22653L10.5331 0.439863C10.7998 0.333197 11.1198 0.333197 11.3331 0.439863L21.4131 6.22653C21.4398 6.2532 21.4664 6.2532 21.4931 6.27986C21.5198 6.30653 21.5464 6.3332 21.5731 6.35986C21.5998 6.38653 21.6264 6.4132 21.6531 6.43986C21.6798 6.46653 21.7064 6.4932 21.7064 6.51986C21.7331 6.5732 21.7598 6.59986 21.7598 6.6532C21.7598 6.67986 21.7864 6.70653 21.7864 6.7332C21.8131 6.8132 21.8131 6.86653 21.8131 6.99986V28.3332L30.1864 23.5865V12.6265C30.1864 12.5465 30.1864 12.4665 30.2131 12.4132L30.2398 12.3332C30.2398 12.3332 30.2664 12.2532 30.2931 12.1999C30.2931 12.1732 30.3198 12.1465 30.3464 12.1199C30.3731 12.0932 30.3998 12.0665 30.4264 12.0399C30.4531 12.0132 30.4798 11.9865 30.5064 11.9599C30.5331 11.9332 30.5598 11.9065 30.5864 11.9065L40.6664 6.11986C40.8798 5.95986 41.1998 5.95986 41.4664 6.11986L51.4931 11.9065C51.5198 11.9065 51.5464 11.9332 51.5731 11.9599L51.6531 12.0399C51.6798 12.0665 51.7064 12.0932 51.7331 12.1199C51.7598 12.1465 51.7598 12.1732 51.7864 12.1999C51.8131 12.2532 51.8131 12.3332 51.8398 12.3332C51.8665 12.3332 51.8664 12.3332 51.8664 12.4132ZM50.2398 23.5865V14.0665L41.8664 18.8665V28.3332L50.2398 23.5865ZM40.2131 40.8132V31.2665L21.8131 41.7732V51.3999L40.2131 40.8132ZM1.75978 8.3332V40.8132L20.1598 51.3999V41.7732L10.5598 36.3332H10.5331C10.5064 36.3332 10.4798 36.3332 10.4531 36.2532C10.4264 36.2532 10.3998 36.2265 10.3731 36.1999C10.3464 36.1732 10.3198 36.1465 10.2931 36.1199C10.2664 36.0932 10.2664 36.0665 10.2398 36.0399C10.2131 35.9865 10.2131 35.9599 10.1864 35.9332C10.1864 35.8799 10.1598 35.8532 10.1598 35.8265C10.1331 35.7999 10.1331 35.7465 10.1331 35.7199C10.1331 35.6665 10.1331 35.6399 10.1331 35.6132V13.1865L1.75978 8.3332ZM10.9598 2.14653L2.61311 6.99986L10.9598 11.7465L19.3331 6.99986L10.9598 2.14653ZM20.1598 29.3465V8.3332L11.7864 13.1865V34.1732L20.1598 29.3465ZM41.0398 7.79986L32.6664 12.6265L41.0398 17.4265L49.3864 12.6265L41.0398 7.79986ZM40.2131 18.8665L31.8398 14.0665V23.5865L40.2131 28.3332V18.8665ZM20.9864 40.3332L39.3331 29.8265L31.0131 25.0265L12.6664 35.6132L20.9864 40.3332Z" fill="#FF611D"/>
</svg>
