<svg width="381" height="381" viewBox="0 0 381 381" fill="none" xmlns="http://www.w3.org/2000/svg">
<path opacity="0.8" d="M196.896 99.9069C221.704 82.9985 255.513 99.2864 257.752 129.225L266.062 240.338C268.301 270.277 237.291 291.412 210.244 278.382L109.862 230.022C82.8153 216.991 80.0165 179.568 104.825 162.66L196.896 99.9069Z" fill="#0A2640"/>
<path opacity="0.7" d="M163.228 113.089C175.544 91.7555 206.336 91.7555 218.653 113.089L271.481 204.589C283.798 225.922 268.402 252.589 243.768 252.589H138.113C113.479 252.589 98.0833 225.922 110.4 204.589L163.228 113.089Z" fill="#0A2640"/>
<path d="M219.392 117.715C245.467 109.587 270.39 133.125 263.763 159.622L241.144 250.053C234.651 276.012 202.612 285.379 183.158 267.005L116.784 204.318C97.3303 185.944 104.853 153.423 130.4 145.459L219.392 117.715Z" fill="#0A2640"/>
<path d="M176.864 173.637C177.056 173.541 177.296 173.457 177.584 173.385C177.872 173.313 178.172 173.277 178.484 173.277C178.964 173.277 179.36 173.361 179.672 173.529C180.008 173.673 180.224 173.901 180.32 174.213C180.92 175.941 181.46 177.549 181.94 179.037C182.444 180.501 182.912 181.929 183.344 183.321C183.8 184.689 184.256 186.105 184.712 187.569H184.856C185.312 185.409 185.756 183.309 186.188 181.269C186.62 179.205 187.04 177.117 187.448 175.005C187.856 172.893 188.228 170.637 188.564 168.237C188.9 168.069 189.308 167.985 189.788 167.985C190.244 167.985 190.604 168.093 190.868 168.309C191.132 168.501 191.264 168.801 191.264 169.209C191.264 169.665 191.192 170.361 191.048 171.297C190.928 172.209 190.748 173.289 190.508 174.537C190.292 175.761 190.028 177.069 189.716 178.461C189.428 179.829 189.116 181.209 188.78 182.601C188.444 183.969 188.108 185.265 187.772 186.489C187.436 187.713 187.112 188.781 186.8 189.693C186.584 189.813 186.308 189.933 185.972 190.053C185.636 190.149 185.252 190.197 184.82 190.197C184.292 190.197 183.848 190.113 183.488 189.945C183.128 189.777 182.888 189.549 182.768 189.261C182.432 188.421 182.024 187.317 181.544 185.949C181.064 184.557 180.56 183.045 180.032 181.413C179.528 179.757 179.036 178.125 178.556 176.517C178.1 178.101 177.608 179.745 177.08 181.449C176.552 183.153 176.036 184.737 175.532 186.201C175.052 187.665 174.62 188.841 174.236 189.729C174.068 189.825 173.804 189.933 173.444 190.053C173.108 190.149 172.724 190.197 172.292 190.197C171.764 190.197 171.32 190.113 170.96 189.945C170.624 189.753 170.396 189.525 170.276 189.261C170.036 188.661 169.736 187.761 169.376 186.561C169.04 185.361 168.68 183.993 168.296 182.457C167.912 180.897 167.528 179.289 167.144 177.633C166.784 175.953 166.436 174.345 166.1 172.809C165.788 171.249 165.536 169.869 165.344 168.669C165.512 168.501 165.74 168.345 166.028 168.201C166.316 168.057 166.628 167.985 166.964 167.985C167.396 167.985 167.732 168.093 167.972 168.309C168.212 168.501 168.38 168.837 168.476 169.317C168.788 170.829 169.088 172.293 169.376 173.709C169.664 175.125 169.952 176.553 170.24 177.993C170.552 179.433 170.876 180.945 171.212 182.529C171.548 184.089 171.92 185.769 172.328 187.569H172.472C172.808 186.489 173.132 185.457 173.444 184.473C173.756 183.489 174.08 182.481 174.416 181.449C174.752 180.393 175.112 179.241 175.496 177.993C175.904 176.745 176.36 175.293 176.864 173.637ZM211.379 178.893C211.379 176.829 210.971 175.173 210.155 173.925C209.363 172.653 208.295 171.729 206.951 171.153C205.631 170.553 204.155 170.253 202.523 170.253C201.779 170.253 201.119 170.277 200.543 170.325C199.967 170.373 199.439 170.445 198.959 170.541V187.677C199.535 187.821 200.147 187.917 200.795 187.965C201.467 188.013 202.151 188.037 202.847 188.037C205.655 188.037 207.779 187.269 209.219 185.733C210.659 184.173 211.379 181.893 211.379 178.893ZM214.367 178.893C214.367 181.509 213.887 183.681 212.927 185.409C211.991 187.113 210.659 188.385 208.931 189.225C207.227 190.065 205.211 190.485 202.883 190.485C202.139 190.485 201.275 190.449 200.291 190.377C199.331 190.329 198.419 190.173 197.555 189.909C196.547 189.597 196.043 189.045 196.043 188.253V169.749C196.043 169.365 196.139 169.077 196.331 168.885C196.547 168.669 196.847 168.501 197.231 168.381C197.975 168.141 198.815 167.985 199.751 167.913C200.687 167.841 201.623 167.805 202.559 167.805C204.911 167.805 206.963 168.225 208.715 169.065C210.491 169.881 211.871 171.105 212.855 172.737C213.863 174.369 214.367 176.421 214.367 178.893Z" fill="white"/>
<path d="M142.248 201.605C142.312 201.573 142.392 201.545 142.488 201.521C142.584 201.497 142.684 201.485 142.788 201.485C142.948 201.485 143.08 201.513 143.184 201.569C143.296 201.617 143.368 201.693 143.4 201.797C143.6 202.373 143.78 202.909 143.94 203.405C144.108 203.893 144.264 204.369 144.408 204.833C144.56 205.289 144.712 205.761 144.864 206.249H144.912C145.064 205.529 145.212 204.829 145.356 204.149C145.5 203.461 145.64 202.765 145.776 202.061C145.912 201.357 146.036 200.605 146.148 199.805C146.26 199.749 146.396 199.721 146.556 199.721C146.708 199.721 146.828 199.757 146.916 199.829C147.004 199.893 147.048 199.993 147.048 200.129C147.048 200.281 147.024 200.513 146.976 200.825C146.936 201.129 146.876 201.489 146.796 201.905C146.724 202.313 146.636 202.749 146.532 203.213C146.436 203.669 146.332 204.129 146.22 204.593C146.108 205.049 145.996 205.481 145.884 205.889C145.772 206.297 145.664 206.653 145.56 206.957C145.488 206.997 145.396 207.037 145.284 207.077C145.172 207.109 145.044 207.125 144.9 207.125C144.724 207.125 144.576 207.097 144.456 207.041C144.336 206.985 144.256 206.909 144.216 206.813C144.104 206.533 143.968 206.165 143.808 205.709C143.648 205.245 143.48 204.741 143.304 204.197C143.136 203.645 142.972 203.101 142.812 202.565C142.66 203.093 142.496 203.641 142.32 204.209C142.144 204.777 141.972 205.305 141.804 205.793C141.644 206.281 141.5 206.673 141.372 206.969C141.316 207.001 141.228 207.037 141.108 207.077C140.996 207.109 140.868 207.125 140.724 207.125C140.548 207.125 140.4 207.097 140.28 207.041C140.168 206.977 140.092 206.901 140.052 206.813C139.972 206.613 139.872 206.313 139.752 205.913C139.64 205.513 139.52 205.057 139.392 204.545C139.264 204.025 139.136 203.489 139.008 202.937C138.888 202.377 138.772 201.841 138.66 201.329C138.556 200.809 138.472 200.349 138.408 199.949C138.464 199.893 138.54 199.841 138.636 199.793C138.732 199.745 138.836 199.721 138.948 199.721C139.092 199.721 139.204 199.757 139.284 199.829C139.364 199.893 139.42 200.005 139.452 200.165C139.556 200.669 139.656 201.157 139.752 201.629C139.848 202.101 139.944 202.577 140.04 203.057C140.144 203.537 140.252 204.041 140.364 204.569C140.476 205.089 140.6 205.649 140.736 206.249H140.784C140.896 205.889 141.004 205.545 141.108 205.217C141.212 204.889 141.32 204.553 141.432 204.209C141.544 203.857 141.664 203.473 141.792 203.057C141.928 202.641 142.08 202.157 142.248 201.605ZM153.504 204.317C153.504 204.909 153.392 205.425 153.168 205.865C152.944 206.305 152.628 206.645 152.22 206.885C151.812 207.125 151.332 207.245 150.78 207.245C150.228 207.245 149.744 207.125 149.328 206.885C148.92 206.645 148.604 206.305 148.38 205.865C148.156 205.425 148.044 204.909 148.044 204.317C148.044 203.717 148.156 203.201 148.38 202.769C148.612 202.329 148.932 201.989 149.34 201.749C149.756 201.509 150.236 201.389 150.78 201.389C151.324 201.389 151.8 201.509 152.208 201.749C152.616 201.989 152.932 202.329 153.156 202.769C153.388 203.201 153.504 203.717 153.504 204.317ZM150.78 202.181C150.244 202.181 149.816 202.373 149.496 202.757C149.184 203.133 149.028 203.653 149.028 204.317C149.028 204.989 149.18 205.513 149.484 205.889C149.796 206.265 150.228 206.453 150.78 206.453C151.324 206.453 151.748 206.265 152.052 205.889C152.364 205.505 152.52 204.981 152.52 204.317C152.52 203.653 152.364 203.133 152.052 202.757C151.748 202.373 151.324 202.181 150.78 202.181ZM155.949 204.473H154.989V202.649C154.989 202.465 155.021 202.321 155.085 202.217C155.157 202.105 155.273 201.997 155.433 201.893C155.641 201.757 155.925 201.641 156.285 201.545C156.645 201.441 157.045 201.389 157.485 201.389C158.125 201.389 158.445 201.549 158.445 201.869C158.445 201.949 158.433 202.025 158.409 202.097C158.385 202.161 158.353 202.217 158.313 202.265C158.233 202.249 158.129 202.233 158.001 202.217C157.873 202.201 157.745 202.193 157.617 202.193C157.249 202.193 156.925 202.233 156.645 202.313C156.365 202.385 156.133 202.473 155.949 202.577V204.473ZM155.949 204.065V207.065C155.909 207.081 155.849 207.097 155.769 207.113C155.689 207.137 155.601 207.149 155.505 207.149C155.337 207.149 155.209 207.117 155.121 207.053C155.033 206.981 154.989 206.869 154.989 206.717V203.921L155.949 204.065ZM160.627 204.065V207.065C160.587 207.081 160.527 207.097 160.447 207.113C160.367 207.137 160.279 207.149 160.183 207.149C160.015 207.149 159.887 207.117 159.799 207.053C159.711 206.981 159.667 206.869 159.667 206.717V203.921L160.627 204.065ZM159.667 204.389V199.313C159.707 199.297 159.767 199.281 159.847 199.265C159.935 199.241 160.023 199.229 160.111 199.229C160.287 199.229 160.415 199.265 160.495 199.337C160.583 199.401 160.627 199.509 160.627 199.661V204.521L159.667 204.389ZM166.304 202.109L167.264 202.097V206.177C167.264 206.329 167.228 206.453 167.156 206.549C167.092 206.637 166.988 206.725 166.844 206.813C166.684 206.917 166.456 207.013 166.16 207.101C165.864 207.197 165.524 207.245 165.14 207.245C164.564 207.245 164.056 207.145 163.616 206.945C163.176 206.745 162.832 206.433 162.584 206.009C162.336 205.577 162.212 205.021 162.212 204.341C162.212 203.645 162.332 203.081 162.572 202.649C162.82 202.217 163.152 201.901 163.568 201.701C163.984 201.493 164.44 201.389 164.936 201.389C165.248 201.389 165.544 201.433 165.824 201.521C166.104 201.609 166.324 201.717 166.484 201.845V202.733C166.332 202.581 166.132 202.453 165.884 202.349C165.644 202.237 165.36 202.181 165.032 202.181C164.704 202.181 164.4 202.253 164.12 202.397C163.84 202.533 163.616 202.761 163.448 203.081C163.28 203.401 163.196 203.829 163.196 204.365C163.196 205.093 163.372 205.625 163.724 205.961C164.076 206.289 164.544 206.453 165.128 206.453C165.408 206.453 165.636 206.425 165.812 206.369C165.996 206.305 166.16 206.229 166.304 206.141V202.109ZM166.304 202.349V199.313C166.344 199.297 166.404 199.281 166.484 199.265C166.572 199.241 166.66 199.229 166.748 199.229C166.924 199.229 167.052 199.265 167.132 199.337C167.22 199.401 167.264 199.509 167.264 199.661V202.337L166.304 202.349ZM176.637 204.317C176.637 204.909 176.525 205.425 176.301 205.865C176.077 206.305 175.761 206.645 175.353 206.885C174.945 207.125 174.465 207.245 173.913 207.245C173.361 207.245 172.877 207.125 172.461 206.885C172.053 206.645 171.737 206.305 171.513 205.865C171.289 205.425 171.177 204.909 171.177 204.317C171.177 203.717 171.289 203.201 171.513 202.769C171.745 202.329 172.065 201.989 172.473 201.749C172.889 201.509 173.369 201.389 173.913 201.389C174.457 201.389 174.933 201.509 175.341 201.749C175.749 201.989 176.065 202.329 176.289 202.769C176.521 203.201 176.637 203.717 176.637 204.317ZM173.913 202.181C173.377 202.181 172.949 202.373 172.629 202.757C172.317 203.133 172.161 203.653 172.161 204.317C172.161 204.989 172.313 205.513 172.617 205.889C172.929 206.265 173.361 206.453 173.913 206.453C174.457 206.453 174.881 206.265 175.185 205.889C175.497 205.505 175.653 204.981 175.653 204.317C175.653 203.653 175.497 203.133 175.185 202.757C174.881 202.373 174.457 202.181 173.913 202.181ZM178.926 201.857H181.47C181.494 201.889 181.518 201.941 181.542 202.013C181.566 202.077 181.578 202.153 181.578 202.241C181.578 202.369 181.546 202.469 181.482 202.541C181.418 202.605 181.326 202.637 181.206 202.637H178.926V201.857ZM179.094 202.505H178.146V201.053C178.146 200.581 178.23 200.201 178.398 199.913C178.574 199.617 178.822 199.401 179.142 199.265C179.47 199.121 179.858 199.049 180.306 199.049C180.762 199.049 181.118 199.109 181.374 199.229C181.638 199.349 181.77 199.497 181.77 199.673C181.77 199.761 181.75 199.841 181.71 199.913C181.678 199.985 181.63 200.053 181.566 200.117C181.422 200.037 181.242 199.973 181.026 199.925C180.81 199.869 180.602 199.841 180.402 199.841C179.914 199.841 179.574 199.941 179.382 200.141C179.19 200.341 179.094 200.661 179.094 201.101V202.505ZM179.106 201.977V207.065C179.066 207.081 179.006 207.097 178.926 207.113C178.846 207.137 178.758 207.149 178.662 207.149C178.494 207.149 178.366 207.117 178.278 207.053C178.19 206.981 178.146 206.869 178.146 206.717V201.977H179.106ZM190.597 203.357C190.597 202.669 190.461 202.117 190.189 201.701C189.925 201.277 189.569 200.969 189.121 200.777C188.681 200.577 188.189 200.477 187.645 200.477C187.397 200.477 187.177 200.485 186.985 200.501C186.793 200.517 186.617 200.541 186.457 200.573V206.285C186.649 206.333 186.853 206.365 187.069 206.381C187.293 206.397 187.521 206.405 187.753 206.405C188.689 206.405 189.397 206.149 189.877 205.637C190.357 205.117 190.597 204.357 190.597 203.357ZM191.593 203.357C191.593 204.229 191.433 204.953 191.113 205.529C190.801 206.097 190.357 206.521 189.781 206.801C189.213 207.081 188.541 207.221 187.765 207.221C187.517 207.221 187.229 207.209 186.901 207.185C186.581 207.169 186.277 207.117 185.989 207.029C185.653 206.925 185.485 206.741 185.485 206.477V200.309C185.485 200.181 185.517 200.085 185.581 200.021C185.653 199.949 185.753 199.893 185.881 199.853C186.129 199.773 186.409 199.721 186.721 199.697C187.033 199.673 187.345 199.661 187.657 199.661C188.441 199.661 189.125 199.801 189.709 200.081C190.301 200.353 190.761 200.761 191.089 201.305C191.425 201.849 191.593 202.533 191.593 203.357ZM193.469 204.173L197.093 203.681C197.061 203.241 196.909 202.881 196.637 202.601C196.365 202.313 195.989 202.169 195.509 202.169C195.013 202.169 194.601 202.349 194.273 202.709C193.953 203.061 193.793 203.569 193.793 204.233V204.497C193.849 205.137 194.057 205.625 194.417 205.961C194.785 206.289 195.285 206.453 195.917 206.453C196.253 206.453 196.557 206.397 196.829 206.285C197.101 206.173 197.317 206.053 197.477 205.925C197.565 205.981 197.633 206.049 197.681 206.129C197.737 206.201 197.765 206.285 197.765 206.381C197.765 206.533 197.677 206.677 197.501 206.813C197.333 206.941 197.105 207.045 196.817 207.125C196.537 207.205 196.221 207.245 195.869 207.245C195.253 207.245 194.717 207.133 194.261 206.909C193.813 206.685 193.465 206.353 193.217 205.913C192.977 205.465 192.857 204.921 192.857 204.281C192.857 203.825 192.921 203.421 193.049 203.069C193.185 202.709 193.369 202.405 193.601 202.157C193.841 201.909 194.125 201.721 194.453 201.593C194.781 201.457 195.137 201.389 195.521 201.389C196.009 201.389 196.437 201.493 196.805 201.701C197.181 201.909 197.473 202.201 197.681 202.577C197.897 202.945 198.005 203.369 198.005 203.849C198.005 204.025 197.965 204.153 197.885 204.233C197.805 204.305 197.693 204.349 197.549 204.365L193.517 204.929L193.469 204.173ZM203.496 201.437C203.632 201.437 203.74 201.473 203.82 201.545C203.908 201.617 203.952 201.721 203.952 201.857C203.952 201.961 203.908 202.157 203.82 202.445C203.732 202.733 203.616 203.077 203.472 203.477C203.328 203.877 203.168 204.297 202.992 204.737C202.824 205.169 202.648 205.589 202.464 205.997C202.288 206.397 202.124 206.745 201.972 207.041C201.932 207.073 201.86 207.101 201.756 207.125C201.66 207.149 201.556 207.161 201.444 207.161C201.308 207.161 201.188 207.137 201.084 207.089C200.98 207.049 200.908 206.989 200.868 206.909C200.78 206.749 200.664 206.517 200.52 206.213C200.384 205.901 200.236 205.549 200.076 205.157C199.916 204.765 199.752 204.361 199.584 203.945C199.424 203.521 199.276 203.117 199.14 202.733C199.004 202.341 198.892 201.997 198.804 201.701C198.86 201.621 198.936 201.557 199.032 201.509C199.128 201.461 199.224 201.437 199.32 201.437C199.464 201.437 199.576 201.473 199.656 201.545C199.736 201.617 199.804 201.737 199.86 201.905L200.604 204.053C200.668 204.237 200.752 204.465 200.856 204.737C200.96 205.009 201.064 205.281 201.168 205.553C201.272 205.825 201.356 206.053 201.42 206.237H201.468C201.788 205.429 202.088 204.633 202.368 203.849C202.648 203.057 202.888 202.285 203.088 201.533C203.192 201.469 203.328 201.437 203.496 201.437ZM205.492 204.173L209.116 203.681C209.084 203.241 208.932 202.881 208.66 202.601C208.388 202.313 208.012 202.169 207.532 202.169C207.036 202.169 206.624 202.349 206.296 202.709C205.976 203.061 205.816 203.569 205.816 204.233V204.497C205.872 205.137 206.08 205.625 206.44 205.961C206.808 206.289 207.308 206.453 207.94 206.453C208.276 206.453 208.58 206.397 208.852 206.285C209.124 206.173 209.34 206.053 209.5 205.925C209.588 205.981 209.656 206.049 209.704 206.129C209.76 206.201 209.788 206.285 209.788 206.381C209.788 206.533 209.7 206.677 209.524 206.813C209.356 206.941 209.128 207.045 208.84 207.125C208.56 207.205 208.244 207.245 207.892 207.245C207.276 207.245 206.74 207.133 206.284 206.909C205.836 206.685 205.488 206.353 205.24 205.913C205 205.465 204.88 204.921 204.88 204.281C204.88 203.825 204.944 203.421 205.072 203.069C205.208 202.709 205.392 202.405 205.624 202.157C205.864 201.909 206.148 201.721 206.476 201.593C206.804 201.457 207.16 201.389 207.544 201.389C208.032 201.389 208.46 201.493 208.828 201.701C209.204 201.909 209.496 202.201 209.704 202.577C209.92 202.945 210.028 203.369 210.028 203.849C210.028 204.025 209.988 204.153 209.908 204.233C209.828 204.305 209.716 204.349 209.572 204.365L205.54 204.929L205.492 204.173ZM212.471 204.065V207.065C212.431 207.081 212.371 207.097 212.291 207.113C212.211 207.137 212.123 207.149 212.027 207.149C211.859 207.149 211.731 207.117 211.643 207.053C211.555 206.981 211.511 206.869 211.511 206.717V203.921L212.471 204.065ZM211.511 204.389V199.313C211.551 199.297 211.611 199.281 211.691 199.265C211.779 199.241 211.867 199.229 211.955 199.229C212.131 199.229 212.259 199.265 212.339 199.337C212.427 199.401 212.471 199.509 212.471 199.661V204.521L211.511 204.389ZM219.516 204.317C219.516 204.909 219.404 205.425 219.18 205.865C218.956 206.305 218.64 206.645 218.232 206.885C217.824 207.125 217.344 207.245 216.792 207.245C216.24 207.245 215.756 207.125 215.34 206.885C214.932 206.645 214.616 206.305 214.392 205.865C214.168 205.425 214.056 204.909 214.056 204.317C214.056 203.717 214.168 203.201 214.392 202.769C214.624 202.329 214.944 201.989 215.352 201.749C215.768 201.509 216.248 201.389 216.792 201.389C217.336 201.389 217.812 201.509 218.22 201.749C218.628 201.989 218.944 202.329 219.168 202.769C219.4 203.201 219.516 203.717 219.516 204.317ZM216.792 202.181C216.256 202.181 215.828 202.373 215.508 202.757C215.196 203.133 215.04 203.653 215.04 204.317C215.04 204.989 215.192 205.513 215.496 205.889C215.808 206.265 216.24 206.453 216.792 206.453C217.336 206.453 217.76 206.265 218.064 205.889C218.376 205.505 218.532 204.981 218.532 204.317C218.532 203.653 218.376 203.133 218.064 202.757C217.76 202.373 217.336 202.181 216.792 202.181ZM223.365 207.245C223.021 207.245 222.697 207.193 222.393 207.089C222.097 206.993 221.881 206.885 221.745 206.765V205.877C221.905 206.029 222.105 206.165 222.345 206.285C222.593 206.397 222.889 206.453 223.233 206.453C223.793 206.453 224.241 206.285 224.577 205.949C224.921 205.605 225.093 205.057 225.093 204.305C225.093 203.777 225.005 203.361 224.829 203.057C224.661 202.745 224.433 202.521 224.145 202.385C223.865 202.249 223.561 202.181 223.233 202.181C222.945 202.181 222.701 202.217 222.501 202.289C222.301 202.361 222.121 202.441 221.961 202.529V206.513H221.001V202.553C221.001 202.393 221.029 202.265 221.085 202.169C221.141 202.073 221.257 201.973 221.433 201.869C221.649 201.749 221.905 201.641 222.201 201.545C222.505 201.441 222.849 201.389 223.233 201.389C223.761 201.389 224.237 201.493 224.661 201.701C225.093 201.901 225.433 202.217 225.681 202.649C225.937 203.073 226.065 203.625 226.065 204.305C226.065 204.961 225.949 205.509 225.717 205.949C225.493 206.381 225.177 206.705 224.769 206.921C224.361 207.137 223.893 207.245 223.365 207.245ZM221.001 206.165L221.961 206.189V209.249C221.921 209.265 221.861 209.281 221.781 209.297C221.701 209.321 221.613 209.333 221.517 209.333C221.349 209.333 221.221 209.297 221.133 209.225C221.045 209.153 221.001 209.041 221.001 208.889V206.165ZM227.851 204.173L231.475 203.681C231.443 203.241 231.291 202.881 231.019 202.601C230.747 202.313 230.371 202.169 229.891 202.169C229.395 202.169 228.983 202.349 228.655 202.709C228.335 203.061 228.175 203.569 228.175 204.233V204.497C228.231 205.137 228.439 205.625 228.799 205.961C229.167 206.289 229.667 206.453 230.299 206.453C230.635 206.453 230.939 206.397 231.211 206.285C231.483 206.173 231.699 206.053 231.859 205.925C231.947 205.981 232.015 206.049 232.063 206.129C232.119 206.201 232.147 206.285 232.147 206.381C232.147 206.533 232.059 206.677 231.883 206.813C231.715 206.941 231.487 207.045 231.199 207.125C230.919 207.205 230.603 207.245 230.251 207.245C229.635 207.245 229.099 207.133 228.643 206.909C228.195 206.685 227.847 206.353 227.599 205.913C227.359 205.465 227.239 204.921 227.239 204.281C227.239 203.825 227.303 203.421 227.431 203.069C227.567 202.709 227.751 202.405 227.983 202.157C228.223 201.909 228.507 201.721 228.835 201.593C229.163 201.457 229.519 201.389 229.903 201.389C230.391 201.389 230.819 201.493 231.187 201.701C231.563 201.909 231.855 202.201 232.063 202.577C232.279 202.945 232.387 203.369 232.387 203.849C232.387 204.025 232.347 204.153 232.267 204.233C232.187 204.305 232.075 204.349 231.931 204.365L227.899 204.929L227.851 204.173ZM234.734 204.473H233.774V202.649C233.774 202.465 233.806 202.321 233.87 202.217C233.942 202.105 234.058 201.997 234.218 201.893C234.426 201.757 234.71 201.641 235.07 201.545C235.43 201.441 235.83 201.389 236.27 201.389C236.91 201.389 237.23 201.549 237.23 201.869C237.23 201.949 237.218 202.025 237.194 202.097C237.17 202.161 237.138 202.217 237.098 202.265C237.018 202.249 236.914 202.233 236.786 202.217C236.658 202.201 236.53 202.193 236.402 202.193C236.034 202.193 235.71 202.233 235.43 202.313C235.15 202.385 234.918 202.473 234.734 202.577V204.473ZM234.734 204.065V207.065C234.694 207.081 234.634 207.097 234.554 207.113C234.474 207.137 234.386 207.149 234.29 207.149C234.122 207.149 233.994 207.117 233.906 207.053C233.818 206.981 233.774 206.869 233.774 206.717V203.921L234.734 204.065ZM242.268 205.613C242.268 206.125 242.08 206.525 241.704 206.813C241.328 207.101 240.784 207.245 240.072 207.245C239.464 207.245 238.968 207.153 238.584 206.969C238.2 206.777 238.008 206.569 238.008 206.345C238.008 206.249 238.032 206.157 238.08 206.069C238.136 205.973 238.216 205.897 238.32 205.841C238.536 205.993 238.788 206.133 239.076 206.261C239.364 206.389 239.692 206.453 240.06 206.453C240.892 206.453 241.308 206.173 241.308 205.613C241.308 205.381 241.236 205.193 241.092 205.049C240.956 204.897 240.752 204.789 240.48 204.725L239.484 204.461C238.996 204.341 238.64 204.157 238.416 203.909C238.192 203.653 238.08 203.337 238.08 202.961C238.08 202.537 238.252 202.169 238.596 201.857C238.94 201.545 239.464 201.389 240.168 201.389C240.544 201.389 240.872 201.429 241.152 201.509C241.432 201.581 241.648 201.681 241.8 201.809C241.96 201.929 242.04 202.061 242.04 202.205C242.04 202.309 242.012 202.401 241.956 202.481C241.908 202.561 241.84 202.621 241.752 202.661C241.656 202.597 241.532 202.529 241.38 202.457C241.236 202.377 241.064 202.313 240.864 202.265C240.664 202.209 240.444 202.181 240.204 202.181C239.852 202.181 239.568 202.249 239.352 202.385C239.136 202.521 239.028 202.713 239.028 202.961C239.028 203.137 239.088 203.293 239.208 203.429C239.336 203.557 239.536 203.653 239.808 203.717L240.636 203.921C241.18 204.049 241.588 204.253 241.86 204.533C242.132 204.805 242.268 205.165 242.268 205.613Z" fill="white"/>
</svg>
