<svg width="64" height="64" viewBox="0 0 64 64" fill="none" xmlns="http://www.w3.org/2000/svg">
<g id="file_type_node_icon_130301 1">
<path id="Vector" d="M31.9999 60C31.2445 60.0002 30.5023 59.8016 29.8479 59.424L22.9999 55.37C21.9779 54.798 22.4759 54.596 22.8139 54.478C23.9009 54.1422 24.9416 53.6718 25.9119 53.078C25.9932 53.0404 26.0826 53.0242 26.1719 53.0308C26.2611 53.0374 26.3472 53.0668 26.4219 53.116L31.6839 56.242C31.7819 56.2938 31.8911 56.3209 32.0019 56.3209C32.1128 56.3209 32.222 56.2938 32.3199 56.242L52.8399 44.398C52.936 44.3404 53.0154 44.2589 53.0704 44.1615C53.1255 44.064 53.1543 43.9539 53.1539 43.842V20.15C53.154 20.0362 53.1248 19.9244 53.0691 19.8253C53.0134 19.7262 52.9331 19.643 52.8359 19.584L32.3159 7.74995C32.2192 7.69546 32.11 7.66683 31.9989 7.66683C31.8879 7.66683 31.7787 7.69546 31.6819 7.74995L11.1739 19.588C11.0761 19.6458 10.9949 19.7279 10.9381 19.8264C10.8814 19.9249 10.851 20.0363 10.8499 20.15V43.832C10.8502 43.9436 10.8802 44.0532 10.9368 44.1495C10.9933 44.2458 11.0745 44.3254 11.1719 44.38L16.7999 47.628C19.8499 49.152 21.7179 47.356 21.7179 45.552V22.17C21.7179 22.0108 21.7811 21.8582 21.8937 21.7457C22.0062 21.6332 22.1588 21.57 22.3179 21.57H24.9179C25.0771 21.57 25.2297 21.6332 25.3422 21.7457C25.4547 21.8582 25.5179 22.0108 25.5179 22.17V45.554C25.5179 49.624 23.3019 51.954 19.4419 51.954C17.7767 51.983 16.1376 51.5376 14.7159 50.67L9.32194 47.576C8.66711 47.1946 8.12377 46.6482 7.74615 45.9912C7.36853 45.3343 7.16985 44.5897 7.16994 43.832V20.15C7.16799 19.391 7.36583 18.6449 7.74358 17.9867C8.12133 17.3284 8.66569 16.7812 9.32194 16.4L29.8439 4.55195C30.505 4.19029 31.2464 4.00073 31.9999 4.00073C32.7535 4.00073 33.4949 4.19029 34.1559 4.55195L54.6759 16.4C55.3307 16.7805 55.8742 17.3262 56.2521 17.9825C56.6301 18.6387 56.8293 19.3826 56.8299 20.14V43.832C56.8288 44.5897 56.6294 45.334 56.2515 45.9908C55.8736 46.6476 55.3305 47.1941 54.6759 47.576L34.1559 59.424C33.5004 59.8022 32.7567 60.0008 31.9999 60Z" fill="#83CD29"/>
<path id="Vector_2" d="M28.1084 35.906C28.1084 35.7469 28.1716 35.5942 28.2841 35.4817C28.3967 35.3692 28.5493 35.306 28.7084 35.306H31.3624C31.5042 35.3064 31.6413 35.3571 31.7493 35.449C31.8573 35.5409 31.9292 35.6681 31.9524 35.808C32.3524 38.51 33.5524 39.872 38.9784 39.872C43.3004 39.872 45.1424 38.894 45.1424 36.6C45.1424 35.278 44.6204 34.296 37.9024 33.638C32.2864 33.082 28.8144 31.838 28.8144 27.35C28.8144 23.21 32.3044 20.74 38.1544 20.74C44.7284 20.74 47.9824 23.022 48.3944 27.918C48.4007 27.9997 48.3902 28.0819 48.3635 28.1594C48.3368 28.2369 48.2945 28.3081 48.2392 28.3687C48.1839 28.4292 48.1168 28.4778 48.042 28.5114C47.9672 28.545 47.8864 28.5629 47.8044 28.564H45.1324C44.9984 28.5621 44.8688 28.5154 44.7644 28.4313C44.66 28.3472 44.5868 28.2306 44.5564 28.1C43.9184 25.258 42.3564 24.35 38.1564 24.35C33.4364 24.35 32.8884 25.994 32.8884 27.226C32.8884 28.718 33.5364 29.154 39.9084 29.996C46.2144 30.83 49.2104 32.01 49.2104 36.442C49.2104 40.914 45.4824 43.474 38.9804 43.474C29.9904 43.486 28.1084 39.364 28.1084 35.906Z" fill="#83CD29"/>
</g>
</svg>
