<svg width="64" height="67" viewBox="0 0 64 67" fill="none" xmlns="http://www.w3.org/2000/svg">
<g id="Group 335">
<path id="Vector" d="M48 16V24C48 28.432 44.432 32 40 32H24C24 32 16 32 16 40V54C16 59.5413 22.2453 64 30 64H34C41.7547 64 48 59.5413 48 54V48H54C59.5413 48 64 41.7547 64 34V30C64 22.2453 59.5413 16 54 16H48Z" fill="#FFC851"/>
<path id="Vector_2" opacity="0.2" d="M39.9997 56C40.7069 56 41.3852 56.2809 41.8853 56.781C42.3854 57.2811 42.6663 57.9594 42.6663 58.6667C42.6663 59.3739 42.3854 60.0522 41.8853 60.5523C41.3852 61.0524 40.7069 61.3333 39.9997 61.3333C39.2924 61.3333 38.6142 61.0524 38.1141 60.5523C37.614 60.0522 37.333 59.3739 37.333 58.6667C37.333 57.9594 37.614 57.2811 38.1141 56.781C38.6142 56.2809 39.2924 56 39.9997 56Z" fill="black"/>
<path id="Vector_3" d="M39.9997 53.3334C40.7069 53.3334 41.3852 53.6143 41.8853 54.1144C42.3854 54.6145 42.6663 55.2928 42.6663 56C42.6663 56.7073 42.3854 57.3856 41.8853 57.8857C41.3852 58.3858 40.7069 58.6667 39.9997 58.6667C39.2924 58.6667 38.6142 58.3858 38.1141 57.8857C37.614 57.3856 37.333 56.7073 37.333 56C37.333 55.2928 37.614 54.6145 38.1141 54.1144C38.6142 53.6143 39.2924 53.3334 39.9997 53.3334Z" fill="white"/>
<path id="Vector_4" d="M30 0C22.2453 0 16 4.46 16 10V16H10C4.46 16 0 22.2453 0 30V34C0 41.7547 4.46 48 10 48H16V40C16 35.568 19.568 32 24 32H40C40 32 48 32 48 24V10C48 4.46 41.7547 0 34 0H30Z" fill="#4795D1"/>
<path id="Vector_5" opacity="0.2" d="M23.9997 8C24.7069 8 25.3852 8.28095 25.8853 8.78105C26.3854 9.28115 26.6663 9.95942 26.6663 10.6667C26.6663 11.3739 26.3854 12.0522 25.8853 12.5523C25.3852 13.0524 24.7069 13.3333 23.9997 13.3333C23.2924 13.3333 22.6142 13.0524 22.1141 12.5523C21.614 12.0522 21.333 11.3739 21.333 10.6667C21.333 9.95942 21.614 9.28115 22.1141 8.78105C22.6142 8.28095 23.2924 8 23.9997 8Z" fill="black"/>
<path id="Vector_6" d="M23.9997 5.33337C24.7069 5.33337 25.3852 5.61433 25.8853 6.11442C26.3854 6.61452 26.6663 7.2928 26.6663 8.00004C26.6663 8.70728 26.3854 9.38556 25.8853 9.88566C25.3852 10.3858 24.7069 10.6667 23.9997 10.6667C23.2924 10.6667 22.6142 10.3858 22.1141 9.88566C21.614 9.38556 21.333 8.70728 21.333 8.00004C21.333 7.2928 21.614 6.61452 22.1141 6.11442C22.6142 5.61433 23.2924 5.33337 23.9997 5.33337Z" fill="white"/>
<path id="Vector_7" opacity="0.1" d="M30 0C22.2453 0 16 4.46 16 10V12.6667C16 7.12667 22.2453 2.66667 30 2.66667H34C41.7547 2.66667 48 7.12667 48 12.6667V10C48 4.46 41.7547 0 34 0H30ZM10 16C4.46 16 0 22.2453 0 30V32.6667C0 24.912 4.46 18.6667 10 18.6667H16V16H10Z" fill="white"/>
<path id="Vector_8" opacity="0.1" d="M48 16V18.6667H54C59.54 18.6667 64 24.9107 64 32.6667V30C64 22.2453 59.5413 16 54 16H48ZM48 24C48 28.432 44.432 32 40 32H24C24 32 16 32 16 40V42.6667C16 34.6667 24 34.6667 24 34.6667H40C44.432 34.6667 48 31.0987 48 26.6667V24Z" fill="white"/>
<path id="Vector_9" opacity="0.2" d="M48 24C48 32 40 32 40 32H24C19.568 32 16 35.568 16 40V42.6667C16 38.2347 19.568 34.6667 24 34.6667H40C40 34.6667 48 34.6667 48 26.6667V24ZM0 34V36.6667C0 44.4213 4.46 50.6667 10 50.6667H16V48H10C4.46 48 0 41.7547 0 34Z" fill="black"/>
<path id="Vector_10" opacity="0.2" d="M64 34C64 41.7547 59.5413 48 54 48H48V50.6667H54C59.5413 50.6667 64 44.4213 64 36.6667V34ZM16 54V56.6667C16 62.2067 22.244 66.6667 30 66.6667H34C41.7547 66.6667 48 62.208 48 56.6667V54C48 59.5413 41.7547 64 34 64H30C22.2453 64 16 59.5413 16 54Z" fill="black"/>
</g>
</svg>
