<svg width="26" height="26" viewBox="0 0 26 26" fill="none" xmlns="http://www.w3.org/2000/svg">
<rect width="26" height="26" rx="13" fill="#5865F2"/>
<g clip-path="url(#clip0_301_407)">
<path d="M18.5452 7.90696C17.5077 7.43083 16.4129 7.091 15.2882 6.89596C15.278 6.89424 15.2675 6.89572 15.2582 6.9002C15.2489 6.90468 15.2412 6.91193 15.2362 6.92096C15.0952 7.17096 14.9392 7.49796 14.8302 7.75396C13.6178 7.56997 12.3846 7.56997 11.1722 7.75396C11.0506 7.46878 10.913 7.19067 10.7602 6.92096C10.755 6.91203 10.7473 6.90486 10.738 6.9004C10.7288 6.89594 10.7183 6.89439 10.7082 6.89596C9.58317 7.08996 8.48817 7.42996 7.45117 7.90696C7.4423 7.91034 7.43487 7.91671 7.43017 7.92496C5.35617 11.024 4.78717 14.047 5.06617 17.032C5.06717 17.046 5.07617 17.06 5.08717 17.069C6.29489 17.9636 7.64576 18.6466 9.08217 19.089C9.09231 19.0922 9.10321 19.092 9.11328 19.0886C9.12335 19.0852 9.13207 19.0787 9.13817 19.07C9.44617 18.65 9.72017 18.207 9.95617 17.741C9.96109 17.7314 9.96277 17.7204 9.96097 17.7098C9.95917 17.6992 9.95398 17.6894 9.94617 17.682C9.941 17.6771 9.93487 17.6733 9.92817 17.671C9.49733 17.5054 9.08006 17.3064 8.68017 17.076C8.669 17.0696 8.66069 17.0592 8.65697 17.047C8.65325 17.0347 8.65439 17.0214 8.66017 17.01C8.66357 17.0025 8.66872 16.996 8.67517 16.991C8.75917 16.928 8.84317 16.862 8.92317 16.796C8.93024 16.7903 8.93872 16.7866 8.9477 16.7854C8.95668 16.7842 8.96583 16.7854 8.97417 16.789C11.5932 17.985 14.4282 17.985 17.0152 16.789C17.0238 16.7852 17.0333 16.7839 17.0426 16.7851C17.052 16.7864 17.0608 16.7901 17.0682 16.796C17.1482 16.862 17.2322 16.928 17.3162 16.991C17.323 16.9959 17.3284 17.0025 17.3321 17.0101C17.3357 17.0177 17.3374 17.0261 17.337 17.0345C17.3366 17.043 17.3341 17.0511 17.3298 17.0584C17.3255 17.0656 17.3194 17.0716 17.3122 17.076C16.9132 17.3086 16.4954 17.5072 16.0632 17.67C16.0563 17.6725 16.05 17.6764 16.0448 17.6816C16.0396 17.6868 16.0357 17.6931 16.0332 17.7C16.0309 17.7066 16.0299 17.7137 16.0304 17.7208C16.031 17.7278 16.0329 17.7347 16.0362 17.741C16.2762 18.206 16.5512 18.65 16.8532 19.07C16.8593 19.0787 16.868 19.0852 16.8781 19.0886C16.8881 19.092 16.899 19.0922 16.9092 19.089C18.348 18.648 19.701 17.9649 20.9102 17.069C20.9162 17.0648 20.9213 17.0593 20.9249 17.0529C20.9285 17.0465 20.9307 17.0393 20.9312 17.032C21.2652 13.581 20.3722 10.583 18.5652 7.92596C18.5633 7.92157 18.5606 7.91761 18.5572 7.91434C18.5537 7.91107 18.5496 7.90855 18.5452 7.90696ZM10.3472 15.214C9.55817 15.214 8.90917 14.49 8.90917 13.602C8.90917 12.713 9.54617 11.989 10.3472 11.989C11.1542 11.989 11.7972 12.719 11.7852 13.602C11.7852 14.49 11.1482 15.214 10.3472 15.214ZM15.6632 15.214C14.8752 15.214 14.2252 14.49 14.2252 13.602C14.2252 12.713 14.8622 11.989 15.6632 11.989C16.4702 11.989 17.1142 12.719 17.1012 13.602C17.1012 14.49 16.4702 15.214 15.6632 15.214Z" fill="white"/>
</g>
<defs>
<clipPath id="clip0_301_407">
<rect width="16" height="16" fill="white" transform="translate(5 5)"/>
</clipPath>
</defs>
</svg>
